<svg version="1.1" xmlns="http://www.w3.org/2000/svg" xmlns:xlink="http://www.w3.org/1999/xlink" x="0px" y="0px" width="49.8px"
	 height="61.9px" viewBox="0 0 49.8 61.9" style="overflow:visible;enable-background:new 0 0 49.8 61.9;" xml:space="preserve">
<defs>
</defs>
<g>
	<path d="M49.8,51.1c0,4.7-3.3,8.8-8,9.8c-3.1,0.6-6.7,1.1-10.6,1.1c-9.2,0-16.7-2.3-22.7-8C3.2,48.9,0,40.8,0,31.3
		C0.1,13.2,12.5,0,32.8,0c7,0,12.5,1.5,15.1,2.8c0,0-5.9,2.3-1.9,6.4c2.3,2.3-7.3,7.7-13.4,7.7c-14.8,0-24.4-1.2-24.4,14
		c0,15.4,9.3,24.5,23.4,24.5c2,0,3.8-0.1,5.3-0.3c3-0.4,5.2-2.9,5.2-5.8l0-7.6c0,0-7.3,1.2-9.9,1.2s-2.4-7.5-2.4-7.5h17.3
		c1.5,0,2.7,1.2,2.7,2.7L49.8,51.1z"/>
</g>
</svg>
